HIERARCHY
ROOT Root
{
  OFFSET 0.0 0.0 0.0
  CHANNELS 6 Xposition Yposition Zposition Zrotation Yrotation Xrotation
  JOINT Hips
  {
    OFFSET 0.0 100.0 0.0
    CHANNELS 6 Xposition Yposition Zposition Zrotation Yrotation Xrotation
    JOINT Spine1
    {
      OFFSET 5.003913 -0.037094 -0.013727
      CHANNELS 3 Zrotation Yrotation Xrotation
      JOINT Spine2
      {
        OFFSET 7.125363 -1e-06 0.0
        CHANNELS 3 Zrotation Yrotation Xrotation
        JOINT Chest
        {
          OFFSET 7.594027 1e-06 0.0
          CHANNELS 3 Zrotation Yrotation Xrotation
          JOINT Neck1
          {
            OFFSET 26.313086 -0.460272 -0.181672
            CHANNELS 3 Zrotation Yrotation Xrotation
            JOINT Neck2
            {
              OFFSET 8.045911 0.0 0.0
              CHANNELS 3 Zrotation Yrotation Xrotation
              JOINT Head
              {
                OFFSET 6.432774 0.0 0.0
                CHANNELS 3 Zrotation Yrotation Xrotation
                JOINT HeadEnd
                {
                  OFFSET 16.169773 0.06451 0.00362
                  CHANNELS 3 Zrotation Yrotation Xrotation
                }
                JOINT Jaw
                {
                  OFFSET 0.108741 3.12938 0.002639
                  CHANNELS 3 Zrotation Yrotation Xrotation
                }
                JOINT LeftEye
                {
                  OFFSET 4.45173 8.166359 3.206392
                  CHANNELS 3 Zrotation Yrotation Xrotation
                }
                JOINT RightEye
                {
                  OFFSET 4.436895 8.135758 -3.222429
                  CHANNELS 3 Zrotation Yrotation Xrotation
                }
              }
            }
          }
          JOINT LeftShoulder
          {
            OFFSET 23.218927 5.195579 1.621656
            CHANNELS 3 Zrotation Yrotation Xrotation
            JOINT LeftArm
            {
              OFFSET 15.902118 2e-06 -2e-06
              CHANNELS 3 Zrotation Yrotation Xrotation
              JOINT LeftForeArm
              {
                OFFSET 28.739307 0.0 -1e-06
                CHANNELS 3 Zrotation Yrotation Xrotation
                JOINT LeftHand
                {
                  OFFSET 27.093981 -4e-06 0.0
                  CHANNELS 3 Zrotation Yrotation Xrotation
                  JOINT LeftHandThumb1
                  {
                    OFFSET 2.276781 3.380274 0.83384
                    CHANNELS 3 Zrotation Yrotation Xrotation
                    JOINT LeftHandThumb2
                    {
                      OFFSET 4.705309 -1e-06 -1e-06
                      CHANNELS 3 Zrotation Yrotation Xrotation
                      JOINT LeftHandThumb3
                      {
                        OFFSET 2.798515 0.0 3e-06
                        CHANNELS 3 Zrotation Yrotation Xrotation
                        JOINT LeftHandThumbEnd
                        {
                          OFFSET 3.180793 4e-06 -4e-06
                          CHANNELS 3 Zrotation Yrotation Xrotation
                        }
                      }
                    }
                  }
                  JOINT LeftHandIndex1
                  {
                    OFFSET 3.247786 2.352677 0.137192
                    CHANNELS 3 Zrotation Yrotation Xrotation
                    JOINT LeftHandIndex2
                    {
                      OFFSET 6.367095 1e-06 0.0
                      CHANNELS 3 Zrotation Yrotation Xrotation
                      JOINT LeftHandIndex3
                      {
                        OFFSET 3.662364 0.0 0.0
                        CHANNELS 3 Zrotation Yrotation Xrotation
                        JOINT LeftHandIndex4
                        {
                          OFFSET 2.329242 4e-06 -4e-06
                          CHANNELS 3 Zrotation Yrotation Xrotation
                          JOINT LeftHandIndexEnd
                          {
                            OFFSET 2.767823 1e-06 0.0
                            CHANNELS 3 Zrotation Yrotation Xrotation
                          }
                        }
                      }
                    }
                  }
                  JOINT LeftHandMiddle1
                  {
                    OFFSET 3.163612 0.945023 -0.406112
                    CHANNELS 3 Zrotation Yrotation Xrotation
                    JOINT LeftHandMiddle2
                    {
                      OFFSET 6.276789 3e-06 0.0
                      CHANNELS 3 Zrotation Yrotation Xrotation
                      JOINT LeftHandMiddle3
                      {
                        OFFSET 4.35652 -1e-06 4e-06
                        CHANNELS 3 Zrotation Yrotation Xrotation
                        JOINT LeftHandMiddle4
                        {
                          OFFSET 2.996877 0.0 8e-06
                          CHANNELS 3 Zrotation Yrotation Xrotation
                          JOINT LeftHandMiddleEnd
                          {
                            OFFSET 2.323256 3e-06 -4e-06
                            CHANNELS 3 Zrotation Yrotation Xrotation
                          }
                        }
                      }
                    }
                  }
                  JOINT LeftHandRing1
                  {
                    OFFSET 2.882606 -0.309162 0.107445
                    CHANNELS 3 Zrotation Yrotation Xrotation
                    JOINT LeftHandRing2
                    {
                      OFFSET 6.033198 0.0 4e-06
                      CHANNELS 3 Zrotation Yrotation Xrotation
                      JOINT LeftHandRing3
                      {
                        OFFSET 4.350578 3e-06 0.0
                        CHANNELS 3 Zrotation Yrotation Xrotation
                        JOINT LeftHandRing4
                        {
                          OFFSET 2.651321 2e-06 -7e-06
                          CHANNELS 3 Zrotation Yrotation Xrotation
                          JOINT LeftHandRingEnd
                          {
                            OFFSET 1.937663 1e-06 -4e-06
                            CHANNELS 3 Zrotation Yrotation Xrotation
                          }
                        }
                      }
                    }
                  }
                  JOINT LeftHandPinky1
                  {
                    OFFSET 2.865315 -1.525436 0.575687
                    CHANNELS 3 Zrotation Yrotation Xrotation
                    JOINT LeftHandPinky2
                    {
                      OFFSET 5.54936 1e-06 -8e-06
                      CHANNELS 3 Zrotation Yrotation Xrotation
                      JOINT LeftHandPinky3
                      {
                        OFFSET 3.070974 0.0 -4e-06
                        CHANNELS 3 Zrotation Yrotation Xrotation
                        JOINT LeftHandPinky4
                        {
                          OFFSET 1.549672 1e-06 0.0
                          CHANNELS 3 Zrotation Yrotation Xrotation
                          JOINT LeftHandPinkyEnd
                          {
                            OFFSET 1.952123 0.0 0.0
                            CHANNELS 3 Zrotation Yrotation Xrotation
                          }
                        }
                      }
                    }
                  }
                }
              }
            }
          }
          JOINT RightShoulder
          {
            OFFSET 23.161716 5.296122 -1.380114
            CHANNELS 3 Zrotation Yrotation Xrotation
            JOINT RightArm
            {
              OFFSET -16.027195 -2e-06 1.1e-05
              CHANNELS 3 Zrotation Yrotation Xrotation
              JOINT RightForeArm
              {
                OFFSET -28.736639 4e-06 2e-06
                CHANNELS 3 Zrotation Yrotation Xrotation
                JOINT RightHand
                {
                  OFFSET -27.133619 6e-06 0.0
                  CHANNELS 3 Zrotation Yrotation Xrotation
                  JOINT RightHandThumb1
                  {
                    OFFSET -2.274328 -3.351035 -0.83067
                    CHANNELS 3 Zrotation Yrotation Xrotation
                    JOINT RightHandThumb2
                    {
                      OFFSET -4.703594 -3e-06 2e-06
                      CHANNELS 3 Zrotation Yrotation Xrotation
                      JOINT RightHandThumb3
                      {
                        OFFSET -2.794935 -4e-06 -3e-06
                        CHANNELS 3 Zrotation Yrotation Xrotation
                        JOINT RightHandThumbEnd
                        {
                          OFFSET -3.183852 4e-06 1e-06
                          CHANNELS 3 Zrotation Yrotation Xrotation
                        }
                      }
                    }
                  }
                  JOINT RightHandIndex1
                  {
                    OFFSET -3.253496 -2.33755 -0.127667
                    CHANNELS 3 Zrotation Yrotation Xrotation
                    JOINT RightHandIndex2
                    {
                      OFFSET -6.344434 0.0 0.0
                      CHANNELS 3 Zrotation Yrotation Xrotation
                      JOINT RightHandIndex3
                      {
                        OFFSET -3.654871 0.0 -8e-06
                        CHANNELS 3 Zrotation Yrotation Xrotation
                        JOINT RightHandIndex4
                        {
                          OFFSET -2.327586 -1e-06 0.0
                          CHANNELS 3 Zrotation Yrotation Xrotation
                          JOINT RightHandIndexEnd
                          {
                            OFFSET -2.770001 3e-06 8e-06
                            CHANNELS 3 Zrotation Yrotation Xrotation
                          }
                        }
                      }
                    }
                  }
                  JOINT RightHandMiddle1
                  {
                    OFFSET -3.168223 -0.944764 0.411762
                    CHANNELS 3 Zrotation Yrotation Xrotation
                    JOINT RightHandMiddle2
                    {
                      OFFSET -6.266691 -1e-06 -4e-06
                      CHANNELS 3 Zrotation Yrotation Xrotation
                      JOINT RightHandMiddle3
                      {
                        OFFSET -4.348901 0.0 0.0
                        CHANNELS 3 Zrotation Yrotation Xrotation
                        JOINT RightHandMiddle4
                        {
                          OFFSET -3.00024 2e-06 -4e-06
                          CHANNELS 3 Zrotation Yrotation Xrotation
                          JOINT RightHandMiddleEnd
                          {
                            OFFSET -2.321477 -4e-06 -4e-06
                            CHANNELS 3 Zrotation Yrotation Xrotation
                          }
                        }
                      }
                    }
                  }
                  JOINT RightHandRing1
                  {
                    OFFSET -2.885654 0.293261 -0.119232
                    CHANNELS 3 Zrotation Yrotation Xrotation
                    JOINT RightHandRing2
                    {
                      OFFSET -6.032835 -1e-06 -4e-06
                      CHANNELS 3 Zrotation Yrotation Xrotation
                      JOINT RightHandRing3
                      {
                        OFFSET -4.33881 0.0 -4e-06
                        CHANNELS 3 Zrotation Yrotation Xrotation
                        JOINT RightHandRing4
                        {
                          OFFSET -2.654903 -4e-06 -4e-06
                          CHANNELS 3 Zrotation Yrotation Xrotation
                          JOINT RightHandRingEnd
                          {
                            OFFSET -1.935122 0.0 4e-06
                            CHANNELS 3 Zrotation Yrotation Xrotation
                          }
                        }
                      }
                    }
                  }
                  JOINT RightHandPinky1
                  {
                    OFFSET -2.866241 1.503904 -0.60527
                    CHANNELS 3 Zrotation Yrotation Xrotation
                    JOINT RightHandPinky2
                    {
                      OFFSET -5.553177 -2e-06 0.0
                      CHANNELS 3 Zrotation Yrotation Xrotation
                      JOINT RightHandPinky3
                      {
                        OFFSET -3.062664 -1e-06 -4e-06
                        CHANNELS 3 Zrotation Yrotation Xrotation
                        JOINT RightHandPinky4
                        {
                          OFFSET -1.546529 2e-06 4e-06
                          CHANNELS 3 Zrotation Yrotation Xrotation
                          JOINT RightHandPinkyEnd
                          {
                            OFFSET -1.952341 0.0 -4e-06
                            CHANNELS 3 Zrotation Yrotation Xrotation
                          }
                        }
                      }
                    }
                  }
                }
              }
            }
          }
        }
      }
    }
    JOINT LeftLeg
    {
      OFFSET -8.443107 2.567604 10.043214
      CHANNELS 3 Zrotation Yrotation Xrotation
      JOINT LeftShin
      {
        OFFSET 43.229198 1e-06 -1e-06
        CHANNELS 3 Zrotation Yrotation Xrotation
        JOINT LeftFoot
        {
          OFFSET 42.298611 1e-06 1e-06
          CHANNELS 3 Zrotation Yrotation Xrotation
          JOINT LeftToeBase
          {
            OFFSET 14.165858 1e-06 0.0
            CHANNELS 3 Zrotation Yrotation Xrotation
            JOINT LeftToeEnd
            {
              OFFSET 6.7141 -0.234461 0.0
              CHANNELS 3 Zrotation Yrotation Xrotation
            }
          }
        }
      }
    }
    JOINT RightLeg
    {
      OFFSET -8.303923 2.592729 -10.047278
      CHANNELS 3 Zrotation Yrotation Xrotation
      JOINT RightShin
      {
        OFFSET -43.369682 0.0 1e-06
        CHANNELS 3 Zrotation Yrotation Xrotation
        JOINT RightFoot
        {
          OFFSET -42.260784 4e-06 2e-06
          CHANNELS 3 Zrotation Yrotation Xrotation
          JOINT RightToeBase
          {
            OFFSET -14.222245 -2e-06 -1e-06
            CHANNELS 3 Zrotation Yrotation Xrotation
            JOINT RightToeEnd
            {
              OFFSET -6.660062 0.232574 -2e-06
              CHANNELS 3 Zrotation Yrotation Xrotation
            }
          }
        }
      }
    }
  }
}
MOTION
Frames: 5
Frame Time: 0.03333333333333333
0.0 0.0 0.0 0.0 -0.0 0.0 -0.779926 100.771751 3.617246 90.215019 -1.329822 90.038666 -2.128875 -0.617044 0.020524 -11.755123 -0.70992 0.19301 16.006369 -0.98949 -2.172901 22.364298 3.090998 2.706517 -2.464331 -0.978978 -1.103396 -29.956974 -1.728719 -1.023622 6e-06 -0.0 -0.0 0.019969 0.005659 -0.070747 0.073642 0.035602 -0.056762 0.083045 -0.027095 -0.082725 -118.246765 -75.335747 133.741547 44.135406 -57.16161 6.984184 23.615866 -0.440574 -0.028185 2.318267 1.003963 3.713173 17.636629 -26.322731 52.41119 -19.466654 -14.395596 29.410385 1e-06 -8.774821 -3e-06 16.030531 -18.164219 6.069514 -0.609778 -1.795654 -3.889328 -4.80709 -11.046811 -2.937849 2e-06 -20.976013 -2e-06 -5.019973 -25.033556 -4.03188 4e-06 2e-06 1e-06 -10.634534 -5.686971 -3.565588 10.573271 -17.922947 -3.113899 1e-06 -13.821205 1e-06 -0.501782 -31.181498 -4.027014 -11.599354 -59.810314 7.302942 -13.982714 -7.150198 -2.875042 13.772728 -8.401489 -3.21824 0.347729 -34.211552 0.771657 -0.963033 -17.73337 2.621019 -1e-06 1e-06 1e-06 -17.346422 -20.095217 -4.201779 21.757557 -1.638372 3.866425 0.0 -6.338822 -0.0 -1.697594 -22.591745 -6.194005 -2e-06 -1e-06 1e-06 47.660679 -75.157852 148.045517 49.273087 -53.858341 19.752415 23.967981 -0.182445 -0.014069 2.846524 2.445089 5.550853 22.182117 -20.375898 49.933327 -16.701815 -16.743528 28.476532 -3e-06 -12.690601 -3e-06 16.05843 -17.65663 2.66339 -0.105921 -1.513857 -4.275881 -5.039041 -5.61287 -2.953555 4e-06 -11.020527 0.0 -6.111297 -15.895334 -3.840472 0.0 0.0 0.0 -10.283371 -5.680287 -4.341835 11.028295 -11.302406 -2.372634 -1.384269 -14.238583 -6.320122 -0.625436 -26.924194 -3.827604 -4.42415 -49.776184 -3.878582 -13.708526 -7.363476 -3.720939 18.141151 -14.052741 -3.242674 7e-06 -18.787271 -5e-06 -0.429711 -8.456045 2.555504 1e-06 -0.0 -1e-06 -15.923536 -20.094484 -5.473585 30.41921 -7.190827 1.735926 1e-06 -8.162927 -2e-06 -1.8619 -22.861471 -6.167941 -2e-06 -3e-06 -3e-06 -179.547256 -2.098097 9.784637 5.483674 -0.018728 -0.081426 -75.634293 -5.963743 -6.604915 -5.480785 1.529664 2.126499 -0.999997 -0.0 -0.0 1.102721 -2.553167 -1.531223 5.472381 -0.001418 -0.067509 -75.957405 -4.527638 -5.877922 -5.968713 0.744642 1.65415 -1.000002 -0.0 -0.0 
0.0 0.0 0.0 0.0 -0.0 0.0 -0.758273 100.785698 3.612121 90.184837 -1.324977 90.053032 -2.137512 -0.612677 -0.002623 -11.749498 -0.693858 0.246423 15.965146 -0.967438 -2.222892 22.323645 3.067594 2.711359 -2.448042 -0.955629 -1.137821 -29.896801 -1.752878 -0.966292 6e-06 0.0 0.0 0.016788 0.00389 -0.055559 0.068529 0.036319 -0.040835 0.075103 -0.031094 -0.068594 -118.282051 -75.389091 133.727554 44.06406 -57.191223 6.894169 23.674393 -0.507129 -0.076765 2.356046 0.941384 3.791503 17.636639 -26.322737 52.411201 -19.466665 -14.395598 29.410395 -0.0 -8.774822 -4e-06 16.031384 -18.153078 6.053362 -0.609775 -1.795653 -3.889329 -4.807091 -11.046813 -2.937851 6e-06 -20.976019 -1e-06 -5.01997 -25.03356 -4.031881 4e-06 1e-06 -1e-06 -10.634537 -5.686972 -3.565589 10.573276 -17.922951 -3.1139 3e-06 -13.82121 1e-06 -0.501777 -31.181505 -4.027017 -11.562124 -59.76376 7.341063 -13.982718 -7.150199 -2.875044 13.772733 -8.401492 -3.21824 0.347733 -34.211555 0.771658 -0.96303 -17.733374 2.621023 -1e-06 -1e-06 1e-06 -17.346422 -20.095221 -4.201782 21.757563 -1.638375 3.866429 1e-06 -6.338824 1e-06 -1.697588 -22.591751 -6.194009 -3e-06 -2e-06 -0.0 47.769547 -75.149658 147.966629 49.323406 -53.830936 19.488937 24.032278 -0.17984 -0.018797 2.926208 2.420327 5.481314 22.182116 -20.375904 49.93335 -16.701815 -16.74353 28.47654 -3e-06 -12.690603 -1e-06 16.065962 -17.690468 2.655548 -0.10592 -1.513855 -4.275882 -5.039041 -5.612872 -2.953555 4e-06 -11.020527 -1e-06 -6.111297 -15.895334 -3.840473 -0.0 0.0 -2e-06 -10.28337 -5.680287 -4.341841 11.028296 -11.302409 -2.372632 -1.384268 -14.238584 -6.320125 -0.625438 -26.924196 -3.8276 -4.484693 -49.917522 -3.82016 -13.708526 -7.363477 -3.720939 18.141148 -14.05274 -3.242673 4e-06 -18.787271 -3e-06 -0.429712 -8.456045 2.555507 1e-06 -1e-06 -0.0 -15.923538 -20.094484 -5.473587 30.419222 -7.190827 1.735926 -0.0 -8.162925 -0.0 -1.8619 -22.861471 -6.167942 -2e-06 -4e-06 -3e-06 -179.52771 -2.11687 9.788363 5.463229 -0.011175 -0.035104 -75.6595 -5.986939 -6.70799 -5.474861 1.552123 2.136156 -0.999998 0.0 -0.0 1.122289 -2.532839 -1.492083 5.451144 -0.005874 -0.063563 -75.860512 -4.571968 -5.879005 -5.988198 0.727816 1.654756 -1.000002 0.0 0.0 
0.0 0.0 0.0 0.0 -0.0 0.0 -0.706745 100.789177 3.576117 90.180901 -1.301688 90.080872 -2.145644 -0.6132 -0.028057 -11.758404 -0.683117 0.263419 15.969652 -0.969023 -2.236821 22.311958 3.057556 2.723514 -2.473984 -0.931535 -1.171544 -29.817327 -1.758258 -0.930498 6e-06 -0.0 -0.0 0.012914 0.003631 -0.050676 0.052167 0.034002 -0.034107 0.062502 -0.029487 -0.066076 -118.344994 -75.442726 133.737488 43.958389 -57.214664 6.864521 23.775923 -0.56993 -0.112868 2.332119 0.877131 3.64346 17.636635 -26.322721 52.411179 -19.466665 -14.395596 29.410381 -1e-06 -8.774821 -4e-06 16.051378 -18.170065 6.025785 -0.609776 -1.795654 -3.889329 -4.807089 -11.046813 -2.937847 6e-06 -20.976019 -6e-06 -5.01997 -25.033558 -4.031882 4e-06 -1e-06 -1e-06 -10.634537 -5.686972 -3.565588 10.573275 -17.922955 -3.113902 4e-06 -13.821209 -1e-06 -0.501776 -31.181511 -4.027018 -11.558791 -59.722088 7.315839 -13.982717 -7.150199 -2.875043 13.772731 -8.401492 -3.218241 0.347738 -34.211555 0.771651 -0.963028 -17.73337 2.62102 0.0 -0.0 -0.0 -17.34642 -20.095221 -4.201784 21.757561 -1.638377 3.86643 1e-06 -6.338823 -1e-06 -1.697587 -22.591751 -6.19401 -2e-06 -0.0 -0.0 47.798252 -75.146088 147.938324 49.30661 -53.806805 19.257685 24.139467 -0.19361 -0.025122 2.979302 2.462141 5.475729 22.182121 -20.375891 49.933319 -16.70182 -16.74353 28.476534 -3e-06 -12.690603 -2e-06 16.085962 -17.698385 2.660124 -0.105919 -1.513856 -4.275884 -5.039042 -5.612873 -2.953555 4e-06 -11.020528 -1e-06 -6.111299 -15.895338 -3.840475 -0.0 0.0 0.0 -10.283373 -5.680289 -4.341838 11.028297 -11.302407 -2.372634 -1.384269 -14.238585 -6.320124 -0.625439 -26.924198 -3.827601 -4.545006 -50.008663 -3.768203 -13.708528 -7.363479 -3.720942 18.141157 -14.052744 -3.242676 6e-06 -18.787275 -6e-06 -0.429711 -8.456046 2.555505 2e-06 -0.0 -0.0 -15.923539 -20.09449 -5.473585 30.419224 -7.190827 1.735926 1e-06 -8.162927 -3e-06 -1.8619 -22.861479 -6.167945 -2e-06 -4e-06 -2e-06 -179.51976 -2.10464 9.858944 5.477668 -0.008286 -0.007527 -75.649506 -6.046405 -6.780962 -5.418179 1.555696 2.142493 -1.000001 -0.0 0.0 1.144767 -2.567911 -1.47764 5.458568 -0.008544 -0.063022 -75.822311 -4.634264 -5.917042 -5.947161 0.719149 1.655799 -1.000002 -0.0 -0.0 
0.0 0.0 0.0 0.0 -0.0 0.0 -0.672031 100.78949 3.523399 90.194862 -1.270637 90.119911 -2.147038 -0.622184 -0.044211 -11.768053 -0.672003 0.261601 15.98456 -0.986128 -2.242853 22.329794 3.031739 2.721332 -2.501312 -0.904912 -1.179282 -29.778597 -1.744809 -0.904571 6e-06 -0.0 0.0 0.008098 0.003583 -0.05097 0.036767 0.032016 -0.03229 0.0496 -0.027787 -0.068926 -118.479401 -75.444221 133.864212 43.929852 -57.165096 6.913486 23.891552 -0.593793 -0.128189 2.300177 0.862514 3.490089 17.636637 -26.322725 52.411179 -19.46666 -14.395598 29.410385 -0.0 -8.774821 -3e-06 16.041485 -18.156471 6.010799 -0.609777 -1.795654 -3.889328 -4.807087 -11.046809 -2.937852 6e-06 -20.976015 -2e-06 -5.019971 -25.033554 -4.031879 6e-06 -2e-06 -1e-06 -10.634534 -5.686969 -3.56559 10.573275 -17.922949 -3.1139 3e-06 -13.821206 1e-06 -0.501775 -31.181501 -4.027012 -11.55365 -59.685268 7.27425 -13.982713 -7.150197 -2.875045 13.77273 -8.401492 -3.218242 0.347736 -34.211552 0.771655 -0.963029 -17.73337 2.62102 -1e-06 -1e-06 -0.0 -17.346416 -20.095213 -4.201783 21.757563 -1.638378 3.866427 2e-06 -6.338823 0.0 -1.697589 -22.591742 -6.194003 -2e-06 -2e-06 -2e-06 47.758591 -75.150032 147.974869 49.270962 -53.768097 19.195871 24.285542 -0.153419 -0.017165 3.009936 2.491924 5.39779 22.182112 -20.375887 49.933304 -16.701817 -16.743532 28.47653 -3e-06 -12.690603 -2e-06 16.087576 -17.680624 2.674326 -0.105919 -1.513857 -4.275881 -5.039041 -5.61287 -2.953555 4e-06 -11.020523 -3e-06 -6.111297 -15.89533 -3.840471 -0.0 -0.0 0.0 -10.283369 -5.680288 -4.34184 11.028296 -11.302405 -2.372632 -1.384268 -14.23858 -6.320123 -0.625438 -26.924187 -3.8276 -4.590157 -50.013119 -3.725371 -13.708524 -7.363477 -3.720939 18.141153 -14.052739 -3.242676 7e-06 -18.78727 -5e-06 -0.429712 -8.456042 2.555505 2e-06 0.0 -0.0 -15.923538 -20.094482 -5.473582 30.419214 -7.190827 1.735925 1e-06 -8.162922 -1e-06 -1.861899 -22.861467 -6.16794 -0.0 -5e-06 -1e-06 -179.526688 -2.074823 9.912914 5.512291 -0.009239 0.005072 -75.61763 -6.073538 -6.823529 -5.382428 1.545319 2.142237 -1.0 -0.0 0.0 1.164821 -2.596236 -1.506891 5.487803 -0.009353 -0.066372 -75.828606 -4.670842 -5.930148 -5.923472 0.709298 1.654841 -1.000002 -0.0 0.0 
0.0 0.0 0.0 0.0 -0.0 0.0 -0.664154 100.788811 3.487943 90.211143 -1.240642 90.185089 -2.151339 -0.622656 -0.045716 -11.773409 -0.664107 0.242093 16.007587 -1.02128 -2.240242 22.352102 3.003662 2.708733 -2.515073 -0.874745 -1.172803 -29.789816 -1.720197 -0.894962 5e-06 -0.0 -0.0 0.007194 0.00468 -0.045235 0.032995 0.03247 -0.025266 0.046296 -0.026096 -0.064881 -118.669662 -75.413857 134.087265 44.007801 -57.070751 6.910336 23.99229 -0.591872 -0.125019 2.300836 0.893263 3.410528 17.636633 -26.322725 52.411182 -19.466661 -14.395596 29.410389 -0.0 -8.774822 -2e-06 15.985363 -18.125484 6.023974 -0.609776 -1.795654 -3.88933 -4.80709 -11.046811 -2.93785 5e-06 -20.976015 -3e-06 -5.019969 -25.03356 -4.03188 5e-06 1e-06 0.0 -10.634535 -5.686972 -3.565589 10.573275 -17.922955 -3.113902 3e-06 -13.821209 -0.0 -0.501774 -31.181505 -4.027015 -11.546117 -59.643433 7.240853 -13.982714 -7.150198 -2.875045 13.77273 -8.401493 -3.218239 0.347736 -34.211555 0.771653 -0.963028 -17.73337 2.621023 -1e-06 0.0 -0.0 -17.346418 -20.095219 -4.201782 21.757557 -1.638375 3.866426 0.0 -6.338823 -1e-06 -1.69759 -22.591747 -6.194009 -0.0 -4e-06 -0.0 47.772064 -75.149513 147.960526 49.286606 -53.723576 19.212782 24.416286 -0.093954 -0.002855 3.030419 2.496564 5.227353 22.18211 -20.375887 49.933308 -16.701809 -16.743525 28.476528 -3e-06 -12.690598 -1e-06 16.095461 -17.66905 2.683255 -0.105919 -1.513854 -4.27588 -5.03904 -5.612872 -2.953558 3e-06 -11.020523 -1e-06 -6.111295 -15.89533 -3.840473 -1e-06 0.0 2e-06 -10.283369 -5.680287 -4.341839 11.028293 -11.302403 -2.372632 -1.38427 -14.238577 -6.320121 -0.62544 -26.924183 -3.8276 -4.618062 -49.994373 -3.709069 -13.708522 -7.363476 -3.72094 18.141148 -14.052739 -3.242674 6e-06 -18.78727 -4e-06 -0.42971 -8.456043 2.555502 1e-06 -0.0 -0.0 -15.923532 -20.094479 -5.473586 30.419207 -7.190824 1.735923 1e-06 -8.162922 -1e-06 -1.861902 -22.861467 -6.167941 -1e-06 -6e-06 -1e-06 -179.525085 -2.047959 9.98867 5.51979 -0.013587 0.002542 -75.557953 -6.076535 -6.85173 -5.352913 1.535028 2.140021 -0.999999 0.0 0.0 1.174425 -2.602552 -1.5601 5.501817 -0.009902 -0.064989 -75.83696 -4.723651 -5.937241 -5.889879 0.700433 1.654263 -1.000002 -0.0 -0.0 
